<svg viewBox="0 0 200 200" fill="none"
    xmlns="http://www.w3.org/2000/svg">
    <path d="M37.909 109.175C38.1512 93.6354 40.7452 70.6469 45.2536 51.3706L7 71.2157L46.2876 178.581L130.494 189.858L138.134 181.364C114.54 180.471 72.5463 163.947 50.7252 148.884C41.1884 142.291 37.7612 119.994 37.909 109.175Z" fill="#337A87"/>
    <path d="M190.687 59.7859C187.768 42.1302 164.688 24.7498 146.489 19.8267C115.361 11.3872 74.3428 3.52258 59.033 18.2C53.4315 23.5695 48.7753 36.351 45.2715 51.3464L88.7603 28.7922L178.946 49.8114L186.037 128.091L138.134 181.364C140.719 181.497 143.31 181.362 145.869 180.96C160.682 178.422 181.197 162.002 186.568 144.811C191.762 128.195 195.415 88.4007 190.687 59.7859Z" fill="#9FD6E0"/>
    <path d="M178.947 49.8112L88.761 28.8164L45.2722 51.3707C40.7638 70.6714 38.1817 93.6354 37.9276 109.175C37.7621 119.994 41.1892 142.291 50.726 148.884C72.5236 163.947 114.541 180.471 138.135 181.364L186.038 128.091L178.947 49.8112Z" fill="#35C5DF"/>
    <path d="M56.2266 128.238L63.1221 119.829C67.8492 124.44 74.1125 127.541 80.1749 127.541C87.4959 127.541 91.4902 124.128 91.4902 118.9C91.4902 113.396 87.2832 111.628 81.333 109.017L72.3811 104.999C65.8815 102.21 59.1041 96.8771 59.1041 86.9454C59.1041 76.0903 68.3691 67.7119 81.2384 67.7119C88.8451 67.7268 96.1388 70.8475 101.535 76.396L95.461 84.1689C91.2716 80.4996 86.8341 78.3591 81.2384 78.3591C75.0755 78.3591 71.0695 81.3252 71.0695 86.2299C71.0695 91.5015 76.0269 93.4463 81.4867 95.758L90.3144 99.5863C98.1436 102.95 103.58 108.087 103.58 117.933C103.58 128.972 94.7164 138.194 79.9444 138.194C71.0869 138.202 62.5766 134.629 56.2266 128.238Z" fill="black"/>
    <path d="M110.776 111.432C110.776 94.4117 122.423 84.5901 135.594 84.5901C140.932 84.5448 146.089 86.592 150.029 90.3204L144.321 98.2217C141.721 95.8672 139.263 94.5524 136.208 94.5524C128.308 94.5524 122.86 101.279 122.86 111.462C122.86 121.645 128.243 128.292 135.859 128.292C139.683 128.292 143.193 126.354 145.994 123.92L150.768 131.913C146.308 135.967 140.573 138.199 134.636 138.187C121.129 138.187 110.776 128.366 110.776 111.432Z" fill="black"/>
    <path d="M157.267 70.1331C157.267 66.0602 160.357 63.2837 164.505 63.2837C168.653 63.2837 171.744 66.0602 171.744 70.1331C171.744 74.2061 168.653 76.9826 164.505 76.9826C160.357 76.9826 157.267 74.1266 157.267 70.1331ZM158.584 85.838H170.349V136.94H158.609L158.584 85.838Z" fill="black"/>
</svg>
