<svg width="1em" height="1em" viewBox="0 0 63 63" fill="none" xmlns="http://www.w3.org/2000/svg">
<path d="M31.3767 10.9707C20.1249 10.9707 10.9707 20.1249 10.9707 31.3767C10.9707 42.6285 20.1249 51.7827 31.3767 51.7827C42.6285 51.7827 51.7827 42.6285 51.7827 31.3767C51.7827 20.1249 42.6285 10.9707 31.3767 10.9707ZM31.3767 41.9369C25.5437 41.9369 20.8165 37.2097 20.8165 31.3767C20.8165 25.5437 25.5437 20.8165 31.3767 20.8165C37.2097 20.8165 41.9369 25.5437 41.9369 31.3767C41.9369 37.2097 37.2097 41.9369 31.3767 41.9369Z" fill="white"/>
<path fill-rule="evenodd" clip-rule="evenodd" d="M33.0865 7.619V0C49.6469 0.8854 62.8025 14.5958 62.8025 31.3766C62.8025 48.1574 49.6469 61.864 33.0865 62.7532V55.1342C45.4289 54.2526 55.2025 43.9394 55.2025 31.3766C55.2025 18.8138 45.4289 8.5006 33.0865 7.619ZM13.3798 46.9565C10.108 43.1793 7.999 38.3685 7.6228 33.0865H0C0.3952 40.4775 3.3516 47.1845 7.9838 52.3487L13.376 46.9565H13.3798ZM29.6666 62.7532V55.1342C24.3808 54.758 19.57 52.6528 15.7928 49.3772L10.4006 54.7694C15.5686 59.4054 22.2756 62.358 29.6628 62.7532H29.6666Z" fill="url(#paint0_linear_13_45)"/>
<defs>
<linearGradient id="paint0_linear_13_45" x1="34.318" y1="4.4122" x2="3.4317" y2="35.2986" gradientUnits="userSpaceOnUse">
<stop stop-color="#0096FF"/>
<stop offset="1" stop-color="#FF1E56"/>
</linearGradient>
</defs>
</svg>
